<svg width="150" height="158" viewBox="0 0 150 158" fill="none" xmlns="http://www.w3.org/2000/svg">
<path d="M88.8333 10.6381C84.0638 12.4397 76 21.7434 76 28.3243C80.6667 31.2035 87.4334 33.1778 95.8334 31.2035C104.233 29.2292 109.056 19.2756 111 11.4607C104.778 9.40422 97 7.55335 88.8333 10.6381Z" fill="#7CB342"/>
<path d="M88.8333 10.6381C84.0638 12.4397 76 21.7434 76 28.3243C80.6667 31.2035 87.4334 33.1778 95.8334 31.2035C104.233 29.2292 109.056 19.2756 111 11.4607C104.778 9.40422 97 7.55335 88.8333 10.6381Z" stroke="#101010" stroke-width="2" stroke-linecap="round"/>
<path fill-rule="evenodd" clip-rule="evenodd" d="M34.1381 123.465C43.3381 130.16 65.9944 137.945 76.1726 141C85.2532 138.713 94.5948 136.129 103.104 132.233C110.481 128.855 121.925 122.214 125.689 117.83C132.912 109.418 142 95.9675 142 69.6653C142 43.3631 119 26.6254 99.9656 26.6254C86.2659 26.6254 80.4025 29.6469 76.8877 31.4582C76.6381 31.5868 76.8877 30.1602 76.1726 31.8242C71.8183 29.3621 66.8931 27.6521 61.1036 26.6254C54.3622 25.4298 43.1915 26.2775 33.2778 31.4582C23.364 36.6389 15.7886 47.7468 12.7244 54.5216C7.13662 66.8757 8.42188 83.6134 12.7244 95.9674C15.5002 103.938 22.6382 115.096 34.1381 123.465Z" fill="#FFAF74"/>
<path d="M91.184 48.3204C87.4198 39.5534 80.5269 34.2863 76.1726 31.8242M76.1726 31.8242C71.8183 29.3621 66.8931 27.6521 61.1036 26.6254C54.3622 25.4298 43.1915 26.2775 33.2778 31.4582C23.364 36.6389 15.7886 47.7468 12.7244 54.5216C7.13662 66.8757 8.42188 83.6134 12.7244 95.9674C15.5002 103.938 22.6382 115.096 34.1381 123.465C43.3381 130.16 65.9944 137.945 76.1726 141C85.2532 138.713 94.5948 136.129 103.104 132.233C110.481 128.855 121.925 122.214 125.689 117.83C132.912 109.418 142 95.9675 142 69.6653C142 43.3631 119 26.6254 99.9656 26.6254C86.2659 26.6254 80.4025 29.6469 76.8877 31.4582C76.6381 31.5868 76.8877 30.1602 76.1726 31.8242ZM76.1726 31.8242L74.1897 23.0387C73.4415 19.7234 72.3632 17.0097 67.3443 12" stroke="#101010" stroke-width="3" stroke-linecap="round"/>
<path d="M48.4173 70.528C47.1293 70.528 46.1633 70.2367 45.5193 69.654C44.8753 69.0407 44.5533 68.1973 44.5533 67.124C44.5533 66.0507 44.9673 65.1613 45.7953 64.456C46.6539 63.72 47.7119 63.352 48.9693 63.352C50.1039 63.352 51.0239 63.628 51.7293 64.18C52.4346 64.732 52.7873 65.514 52.7873 66.526C52.7873 67.7527 52.3886 68.734 51.5913 69.47C50.7939 70.1753 49.7359 70.528 48.4173 70.528ZM56.6973 84.834C57.0959 84.834 57.4026 85.0333 57.6173 85.432C57.8626 85.8 57.9853 86.2753 57.9853 86.858C57.9853 87.5633 57.8779 88.1153 57.6633 88.514C57.4486 88.9127 57.1113 89.2653 56.6513 89.572C54.5046 90.9827 51.6373 92.93 48.0493 95.414C46.8533 101.793 45.3046 106.807 43.4033 110.456C41.5019 114.105 39.0793 115.93 36.1353 115.93C34.5406 115.93 33.2679 115.439 32.3173 114.458C31.3359 113.507 30.8453 112.25 30.8453 110.686C30.8453 108.509 31.6886 106.178 33.3753 103.694C35.0619 101.241 38.2359 98.2047 42.8973 94.586L43.2193 92.24C43.6486 89.296 43.9859 86.398 44.2313 83.546C44.4153 81.89 44.7066 79.4213 45.1053 76.14C45.2279 75.2507 45.5653 74.6067 46.1173 74.208C46.6693 73.7787 47.5126 73.564 48.6473 73.564C49.5673 73.564 50.1653 73.702 50.4413 73.978C50.7479 74.254 50.9013 74.6373 50.9013 75.128C50.9013 76.5387 50.3953 80.4333 49.3833 86.812L48.9233 89.986C51.3766 88.146 53.6153 86.5513 55.6393 85.202C56.0379 84.9567 56.3906 84.834 56.6973 84.834ZM36.6413 111.468C37.4386 111.468 38.3126 110.563 39.2633 108.754C40.2139 106.945 41.1033 104.031 41.9313 100.014C39.6006 102.007 37.9293 103.801 36.9173 105.396C35.8746 107.021 35.3533 108.447 35.3533 109.674C35.3533 110.87 35.7826 111.468 36.6413 111.468ZM77.715 80.878C78.1136 80.878 78.4203 81.0773 78.635 81.476C78.8496 81.8747 78.957 82.3807 78.957 82.994C78.957 84.466 78.5123 85.34 77.623 85.616C75.783 86.26 73.759 86.628 71.551 86.72C70.9683 89.296 69.8183 91.366 68.101 92.93C66.3836 94.4633 64.4363 95.23 62.259 95.23C60.419 95.23 58.8396 94.7853 57.521 93.896C56.233 93.0067 55.2516 91.826 54.577 90.354C53.9023 88.882 53.565 87.2873 53.565 85.57C53.565 83.2393 54.0096 81.1693 54.899 79.36C55.7883 77.52 57.015 76.094 58.579 75.082C60.143 74.0393 61.8756 73.518 63.777 73.518C66.1076 73.518 67.9783 74.3307 69.389 75.956C70.8303 77.5507 71.6736 79.5287 71.919 81.89C73.3603 81.798 75.0776 81.4913 77.071 80.97C77.3163 80.9087 77.531 80.878 77.715 80.878ZM62.627 90.354C63.6083 90.354 64.4516 89.9553 65.157 89.158C65.893 88.3607 66.3836 87.2107 66.629 85.708C65.6783 85.064 64.9423 84.2207 64.421 83.178C63.9303 82.1353 63.685 81.0313 63.685 79.866C63.685 79.3753 63.731 78.8847 63.823 78.394H63.593C62.3663 78.394 61.339 78.992 60.511 80.188C59.7136 81.3533 59.315 83.0093 59.315 85.156C59.315 86.8427 59.637 88.1307 60.281 89.02C60.9556 89.9093 61.7376 90.354 62.627 90.354ZM91.5229 84.742C91.9215 84.742 92.2282 84.926 92.4429 85.294C92.6882 85.662 92.8109 86.168 92.8109 86.812C92.8109 88.0387 92.5195 88.9893 91.9369 89.664C90.6182 91.2893 89.1769 92.6233 87.6129 93.666C86.0795 94.7087 84.3315 95.23 82.3689 95.23C79.6702 95.23 77.6615 94.0033 76.3429 91.55C75.0549 89.0967 74.4109 85.9227 74.4109 82.028C74.4109 78.2867 74.8862 74.024 75.8369 69.24C76.8182 64.456 78.2442 60.3467 80.1149 56.912C82.0162 53.4773 84.2702 51.76 86.8769 51.76C88.3489 51.76 89.4989 52.45 90.3269 53.83C91.1855 55.1793 91.6149 57.1267 91.6149 59.672C91.6149 63.3213 90.6029 67.5533 88.5789 72.368C86.5549 77.1827 83.8102 81.9513 80.3449 86.674C80.5595 87.9313 80.9122 88.836 81.4029 89.388C81.8935 89.9093 82.5375 90.17 83.3349 90.17C84.5922 90.17 85.6962 89.8173 86.6469 89.112C87.5975 88.376 88.8089 87.134 90.2809 85.386C90.6489 84.9567 91.0629 84.742 91.5229 84.742ZM85.8649 56.314C85.1595 56.314 84.3622 57.5867 83.4729 60.132C82.5835 62.6773 81.8015 65.836 81.1269 69.608C80.4522 73.38 80.0842 76.9987 80.0229 80.464C82.2002 76.876 83.9329 73.288 85.2209 69.7C86.5089 66.0813 87.1529 62.7847 87.1529 59.81C87.1529 57.4793 86.7235 56.314 85.8649 56.314ZM105.607 84.742C106.005 84.742 106.312 84.926 106.527 85.294C106.772 85.662 106.895 86.168 106.895 86.812C106.895 88.0387 106.603 88.9893 106.021 89.664C104.702 91.2893 103.261 92.6233 101.697 93.666C100.163 94.7087 98.4154 95.23 96.4528 95.23C93.7541 95.23 91.7454 94.0033 90.4268 91.55C89.1388 89.0967 88.4948 85.9227 88.4948 82.028C88.4948 78.2867 88.9701 74.024 89.9208 69.24C90.9021 64.456 92.3281 60.3467 94.1988 56.912C96.1001 53.4773 98.3541 51.76 100.961 51.76C102.433 51.76 103.583 52.45 104.411 53.83C105.269 55.1793 105.699 57.1267 105.699 59.672C105.699 63.3213 104.687 67.5533 102.663 72.368C100.639 77.1827 97.8941 81.9513 94.4288 86.674C94.6434 87.9313 94.9961 88.836 95.4868 89.388C95.9774 89.9093 96.6214 90.17 97.4188 90.17C98.6761 90.17 99.7801 89.8173 100.731 89.112C101.681 88.376 102.893 87.134 104.365 85.386C104.733 84.9567 105.147 84.742 105.607 84.742ZM99.9488 56.314C99.2434 56.314 98.4461 57.5867 97.5568 60.132C96.6674 62.6773 95.8854 65.836 95.2108 69.608C94.5361 73.38 94.1681 76.9987 94.1068 80.464C96.2841 76.876 98.0168 73.288 99.3048 69.7C100.593 66.0813 101.237 62.7847 101.237 59.81C101.237 57.4793 100.807 56.314 99.9488 56.314ZM118.357 73.564C119.062 73.564 119.553 73.656 119.829 73.84C120.105 74.024 120.243 74.3307 120.243 74.76C120.243 75.496 119.844 78.118 119.047 82.626C118.341 86.95 117.927 89.5107 117.805 90.308C116.67 98.1893 115.106 104.43 113.113 109.03C111.119 113.63 108.467 115.93 105.155 115.93C103.591 115.93 102.318 115.439 101.337 114.458C100.355 113.507 99.8647 112.25 99.8647 110.686C99.8647 109.245 100.187 107.773 100.831 106.27C101.505 104.767 102.732 103.035 104.511 101.072C106.32 99.14 108.865 96.9167 112.147 94.402L112.285 93.344C112.499 92.2093 112.745 90.584 113.021 88.468C112.407 90.676 111.549 92.3627 110.445 93.528C109.341 94.6627 108.175 95.23 106.949 95.23C105.569 95.23 104.434 94.6013 103.545 93.344C102.686 92.056 102.257 90.4613 102.257 88.56C102.257 86.26 102.41 84.1593 102.717 82.258C103.023 80.326 103.529 78.2867 104.235 76.14C104.541 75.22 104.971 74.5607 105.523 74.162C106.075 73.7633 106.949 73.564 108.145 73.564C108.819 73.564 109.279 73.6713 109.525 73.886C109.801 74.1007 109.939 74.4227 109.939 74.852C109.939 75.0973 109.77 75.9253 109.433 77.336C109.126 78.4707 108.881 79.498 108.697 80.418C108.451 81.6753 108.237 82.8867 108.053 84.052C107.869 85.1867 107.777 86.122 107.777 86.858C107.777 88.0233 108.099 88.606 108.743 88.606C109.203 88.606 109.77 88.146 110.445 87.226C111.15 86.306 111.886 84.9107 112.653 83.04C113.45 81.1693 114.217 78.8693 114.953 76.14C115.198 75.22 115.566 74.5607 116.057 74.162C116.578 73.7633 117.345 73.564 118.357 73.564ZM105.661 111.468C106.427 111.468 107.286 110.579 108.237 108.8C109.187 107.021 110.138 104.062 111.089 99.922C108.727 101.915 107.01 103.725 105.937 105.35C104.894 107.006 104.373 108.447 104.373 109.674C104.373 110.195 104.465 110.625 104.649 110.962C104.863 111.299 105.201 111.468 105.661 111.468Z" fill="black"/>
</svg>
