<svg width="192" height="192" viewBox="0 0 192 192" fill="none" xmlns="http://www.w3.org/2000/svg">
<path d="M119.912 94.4463C119.912 116.863 109.721 134.962 104.259 140.881M104.259 140.881C96.6442 149.132 85.4756 160.896 66.6922 160.095C44.7782 159.161 26.7087 147.726 25.2121 122.467C25.2119 96.0654 41.1423 86.9132 47.9087 82.4374M104.259 140.881C112.007 148.69 126.643 160.095 137.913 160.095C156.696 160.095 162.175 155.291 166.87 150.488M104.259 140.881C90.6932 129.939 62.779 103.093 53.3873 89.6427C41.6477 72.8303 34.2282 60.7909 35.3865 48.8125C36.5698 36.5761 45.7137 32 53.3873 32C61.2137 32 70.8595 43.4402 70.8595 43.4402C70.8595 43.4402 78.911 32 91.4332 32C103.956 32 109.317 43.1719 107.435 52.5924C105.149 64.0327 91.4337 77.761 84.693 83.238" stroke="black" stroke-width="15" stroke-linecap="square"/>
</svg>
