<svg id="visual" viewBox="0 0 960 300" width="960" height="300" xmlns="http://www.w3.org/2000/svg" xmlns:xlink="http://www.w3.org/1999/xlink" version="1.1"><rect x="0" y="0" width="960" height="300" fill="#FFFFF0"></rect><path d="M0 233L20 219.8C40 206.7 80 180.3 120 178.2C160 176 200 198 240 212.2C280 226.3 320 232.7 360 216.3C400 200 440 161 480 147.2C520 133.3 560 144.7 600 148.7C640 152.7 680 149.3 720 156.3C760 163.3 800 180.7 840 190.2C880 199.7 920 201.3 940 202.2L960 203L960 0L940 0C920 0 880 0 840 0C800 0 760 0 720 0C680 0 640 0 600 0C560 0 520 0 480 0C440 0 400 0 360 0C320 0 280 0 240 0C200 0 160 0 120 0C80 0 40 0 20 0L0 0Z" fill="#d4af37"></path><path d="M0 104L20 107C40 110 80 116 120 117.3C160 118.7 200 115.3 240 118.8C280 122.3 320 132.7 360 130.5C400 128.3 440 113.7 480 109.2C520 104.7 560 110.3 600 111C640 111.7 680 107.3 720 118.8C760 130.3 800 157.7 840 170.8C880 184 920 183 940 182.5L960 182L960 0L940 0C920 0 880 0 840 0C800 0 760 0 720 0C680 0 640 0 600 0C560 0 520 0 480 0C440 0 400 0 360 0C320 0 280 0 240 0C200 0 160 0 120 0C80 0 40 0 20 0L0 0Z" fill="#c99324"></path><path d="M0 108L20 105C40 102 80 96 120 103.2C160 110.3 200 130.7 240 135C280 139.3 320 127.7 360 116.7C400 105.7 440 95.3 480 100.3C520 105.3 560 125.7 600 135.5C640 145.3 680 144.7 720 139.7C760 134.7 800 125.3 840 120C880 114.7 920 113.3 940 112.7L960 112L960 0L940 0C920 0 880 0 840 0C800 0 760 0 720 0C680 0 640 0 600 0C560 0 520 0 480 0C440 0 400 0 360 0C320 0 280 0 240 0C200 0 160 0 120 0C80 0 40 0 20 0L0 0Z" fill="#bc7813"></path><path d="M0 76L20 73C40 70 80 64 120 62.2C160 60.3 200 62.7 240 71.3C280 80 320 95 360 93.5C400 92 440 74 480 69.2C520 64.3 560 72.7 600 81.3C640 90 680 99 720 101.5C760 104 800 100 840 98.2C880 96.3 920 96.7 940 96.8L960 97L960 0L940 0C920 0 880 0 840 0C800 0 760 0 720 0C680 0 640 0 600 0C560 0 520 0 480 0C440 0 400 0 360 0C320 0 280 0 240 0C200 0 160 0 120 0C80 0 40 0 20 0L0 0Z" fill="#ae5d05"></path><path d="M0 52L20 51.2C40 50.3 80 48.7 120 49.2C160 49.7 200 52.3 240 53.7C280 55 320 55 360 58.2C400 61.3 440 67.7 480 70C520 72.3 560 70.7 600 70.2C640 69.7 680 70.3 720 68.8C760 67.3 800 63.7 840 62.5C880 61.3 920 62.7 940 63.3L960 64L960 0L940 0C920 0 880 0 840 0C800 0 760 0 720 0C680 0 640 0 600 0C560 0 520 0 480 0C440 0 400 0 360 0C320 0 280 0 240 0C200 0 160 0 120 0C80 0 40 0 20 0L0 0Z" fill="#9e4200"></path></svg>