<svg id="visual" viewBox="0 0 960 300" width="960" height="300" xmlns="http://www.w3.org/2000/svg" xmlns:xlink="http://www.w3.org/1999/xlink" version="1.1"><rect x="0" y="0" width="960" height="300" fill="#FFFFF0"></rect><path d="M0 80L20 91.5C40 103 80 126 120 128.2C160 130.3 200 111.7 240 110C280 108.3 320 123.7 360 133.5C400 143.3 440 147.7 480 135.8C520 124 560 96 600 99.5C640 103 680 138 720 149.5C760 161 800 149 840 144.2C880 139.3 920 141.7 940 142.8L960 144L960 301L940 301C920 301 880 301 840 301C800 301 760 301 720 301C680 301 640 301 600 301C560 301 520 301 480 301C440 301 400 301 360 301C320 301 280 301 240 301C200 301 160 301 120 301C80 301 40 301 20 301L0 301Z" fill="#d4af37"></path><path d="M0 139L20 145.8C40 152.7 80 166.3 120 171.8C160 177.3 200 174.7 240 172.3C280 170 320 168 360 170.5C400 173 440 180 480 183.2C520 186.3 560 185.7 600 182.2C640 178.7 680 172.3 720 174.7C760 177 800 188 840 177.2C880 166.3 920 133.7 940 117.3L960 101L960 301L940 301C920 301 880 301 840 301C800 301 760 301 720 301C680 301 640 301 600 301C560 301 520 301 480 301C440 301 400 301 360 301C320 301 280 301 240 301C200 301 160 301 120 301C80 301 40 301 20 301L0 301Z" fill="#c99324"></path><path d="M0 168L20 169C40 170 80 172 120 174.7C160 177.3 200 180.7 240 184.2C280 187.7 320 191.3 360 193C400 194.7 440 194.3 480 196.8C520 199.3 560 204.7 600 197.8C640 191 680 172 720 174C760 176 800 199 840 203.2C880 207.3 920 192.7 940 185.3L960 178L960 301L940 301C920 301 880 301 840 301C800 301 760 301 720 301C680 301 640 301 600 301C560 301 520 301 480 301C440 301 400 301 360 301C320 301 280 301 240 301C200 301 160 301 120 301C80 301 40 301 20 301L0 301Z" fill="#bc7813"></path><path d="M0 243L20 240.2C40 237.3 80 231.7 120 232.7C160 233.7 200 241.3 240 242.2C280 243 320 237 360 231.5C400 226 440 221 480 220.2C520 219.3 560 222.7 600 228.2C640 233.7 680 241.3 720 244C760 246.7 800 244.3 840 239C880 233.7 920 225.3 940 221.2L960 217L960 301L940 301C920 301 880 301 840 301C800 301 760 301 720 301C680 301 640 301 600 301C560 301 520 301 480 301C440 301 400 301 360 301C320 301 280 301 240 301C200 301 160 301 120 301C80 301 40 301 20 301L0 301Z" fill="#ae5d05"></path><path d="M0 237L20 241.7C40 246.3 80 255.7 120 259.8C160 264 200 263 240 256.7C280 250.3 320 238.7 360 235.5C400 232.3 440 237.7 480 240.8C520 244 560 245 600 248.3C640 251.7 680 257.3 720 259.8C760 262.3 800 261.7 840 260.7C880 259.7 920 258.3 940 257.7L960 257L960 301L940 301C920 301 880 301 840 301C800 301 760 301 720 301C680 301 640 301 600 301C560 301 520 301 480 301C440 301 400 301 360 301C320 301 280 301 240 301C200 301 160 301 120 301C80 301 40 301 20 301L0 301Z" fill="#9e4200"></path></svg>